HIERARCHY
ROOT root
{
	OFFSET 0.000000 0.000000 0.000000
	CHANNELS 6 Xposition Yposition Zposition Zrotation Yrotation Xrotation
	JOINT lhip
	{
		OFFSET 0.058581 -0.082280 -0.017664
		CHANNELS 3 Zrotation Yrotation Xrotation
		JOINT lknee
		{
			OFFSET 0.043451 -0.386469 0.008037
			CHANNELS 3 Zrotation Yrotation Xrotation
			JOINT lankle
			{
				OFFSET -0.014790 -0.426874 -0.037428
				CHANNELS 3 Zrotation Yrotation Xrotation
				JOINT ltoe
				{
					OFFSET 0.041054 -0.060286 0.122042
					CHANNELS 3 Zrotation Yrotation Xrotation
					End Site
					{
						OFFSET 0.000000 0.000000 0.000000
					}
				}
			}
		}
	}
	JOINT rhip
	{
		OFFSET -0.060310 -0.090513 -0.013543
		CHANNELS 3 Zrotation Yrotation Xrotation
		JOINT rknee
		{
			OFFSET -0.043257 -0.383688 -0.004843
			CHANNELS 3 Zrotation Yrotation Xrotation
			JOINT rankle
			{
				OFFSET 0.019056 -0.420046 -0.034562
				CHANNELS 3 Zrotation Yrotation Xrotation
				JOINT rtoe
				{
					OFFSET -0.034840 -0.062106 0.130323
					CHANNELS 3 Zrotation Yrotation Xrotation
					End Site
					{
						OFFSET 0.000000 0.000000 0.000000
					}
				}
			}
		}
	}
	JOINT lowerback
	{
		OFFSET 0.004439 0.124404 -0.038385
		CHANNELS 3 Zrotation Yrotation Xrotation
		JOINT upperback
		{
			OFFSET 0.004488 0.137956 0.026820
			CHANNELS 3 Zrotation Yrotation Xrotation
			JOINT chest
			{
				OFFSET -0.002265 0.056032 0.002855
				CHANNELS 3 Zrotation Yrotation Xrotation
				JOINT lowerneck
				{
					OFFSET -0.013390 0.211636 -0.033468
					CHANNELS 3 Zrotation Yrotation Xrotation
					JOINT upperneck
					{
						OFFSET 0.010113 0.088937 0.050410
						CHANNELS 3 Zrotation Yrotation Xrotation
						End Site
						{
							OFFSET 0.000000 0.000000 0.000000
						}
					}
				}
				JOINT lclavicle
				{
					OFFSET 0.071702 0.114000 -0.018898
					CHANNELS 3 Zrotation Yrotation Xrotation
					JOINT lshoulder
					{
						OFFSET 0.122921 0.045205 -0.019046
						CHANNELS 3 Zrotation Yrotation Xrotation
						JOINT lelbow
						{
							OFFSET 0.255332 -0.015649 -0.022946
							CHANNELS 3 Zrotation Yrotation Xrotation
							JOINT lwrist
							{
								OFFSET 0.265709 0.012698 -0.007375
								CHANNELS 3 Zrotation Yrotation Xrotation
								End Site
								{
									OFFSET 0.000000 0.000000 0.000000
								}
							}
						}
					}
				}
				JOINT rclavicle
				{
					OFFSET -0.082954 0.112472 -0.023707
					CHANNELS 3 Zrotation Yrotation Xrotation
					JOINT rshoulder
					{
						OFFSET -0.113228 0.046853 -0.008472
						CHANNELS 3 Zrotation Yrotation Xrotation
						JOINT relbow
						{
							OFFSET -0.260127 -0.014369 -0.031269
							CHANNELS 3 Zrotation Yrotation Xrotation
							JOINT rwrist
							{
								OFFSET -0.269108 0.006794 -0.006027
								CHANNELS 3 Zrotation Yrotation Xrotation
								End Site
								{
									OFFSET 0.000000 0.000000 0.000000
								}
							}
						}
					}
				}
			}
		}
	}
}
MOTION
Frames: 14
Frame Time: 0.033333
0.983350 1.029660 0.920127 -88.249162 -14.701472 65.200221 26.035645 2.028405 -21.805440 -6.217100 -1.782210 16.527321 -13.833773 5.417019 16.181198 0.000000 -0.000000 0.000000 -20.805302 0.731563 24.428971 -0.107275 13.087779 42.298576 3.113909 -7.516915 -39.560206 0.000000 -0.000000 0.000000 2.342684 5.317154 11.130546 0.337928 -2.991651 13.782660 -2.959437 0.778474 3.946653 -1.970464 12.746938 10.492551 0.180284 6.641976 12.722437 -28.601289 9.473389 -0.252836 -53.653095 6.231129 -0.878279 7.056263 -26.083500 3.633702 -1.859261 -1.708059 -11.851910 26.266355 -3.278991 0.625460 46.040758 -0.732172 3.622475 -10.076980 36.548414 -6.238617 1.163686 -0.238909 1.442432 
0.966648 1.011049 0.913184 -89.115570 -14.603568 65.499047 26.293826 2.335513 -21.153276 -6.134978 -2.534246 15.306417 -15.458370 5.407812 18.401558 0.000000 -0.000000 0.000000 -21.963983 1.333828 24.870382 -0.286933 14.135767 42.815144 3.450027 -6.984517 -39.564942 0.000000 -0.000000 0.000000 2.906832 5.128225 11.236404 0.196785 -2.705337 13.985191 -3.164784 0.875920 3.828159 -2.058947 12.824014 10.923596 0.039035 6.944366 12.628030 -28.798078 10.084585 -0.594274 -52.711023 7.196649 -1.420362 6.506029 -25.668584 3.725250 -1.245043 -2.004128 -11.493252 26.080580 -2.977657 0.305935 45.549025 0.146611 3.768756 -9.310529 37.069771 -6.267573 -0.775240 0.355665 1.552821 
0.950115 0.991142 0.905335 -90.045819 -14.284184 66.250807 26.625278 2.804851 -21.155227 -6.398428 -3.484796 14.922412 -15.494054 5.394278 19.088053 0.000000 -0.000000 0.000000 -23.477879 1.685402 24.952753 -0.350000 14.930042 42.864731 3.849553 -6.138652 -39.421548 0.000000 -0.000000 0.000000 3.535480 5.101261 11.271522 0.042851 -2.416353 13.991431 -3.337263 1.186336 3.853759 -2.080676 12.437864 11.118103 0.077590 6.902028 12.501344 -28.857571 10.216887 -0.380623 -52.012924 7.847120 -1.957580 6.305014 -25.583171 3.379599 -0.389218 -1.523086 -11.973318 26.242278 -2.406171 0.599700 44.825793 1.010592 3.586108 -9.132417 38.875008 -6.199015 -1.530867 0.864161 1.154223 
0.932233 0.969912 0.896939 -90.513017 -13.590169 67.398320 26.966010 3.214949 -22.128641 -6.706208 -3.429325 15.556788 -16.293528 4.881400 20.405010 0.000000 -0.000000 0.000000 -24.687284 1.592297 24.850330 -0.570352 15.468461 42.790430 4.218703 -5.144409 -38.863236 0.000000 -0.000000 0.000000 3.764337 5.237064 11.235369 0.170501 -2.405323 14.102126 -3.377958 1.343943 3.452256 -1.918170 12.244537 11.199839 0.143421 6.674074 12.296047 -28.686820 10.599083 -0.676073 -50.936498 8.712267 -2.469093 5.715324 -25.779113 3.166273 -1.896177 -1.629894 -12.597878 26.447676 -2.170911 0.479526 44.174091 1.764011 3.677405 -8.788430 40.697538 -5.993410 -0.065671 1.046043 1.101929 
0.915006 0.947806 0.888181 -90.905847 -12.741381 68.658125 27.225236 3.295485 -23.689882 -7.502128 -4.057245 17.589714 -17.515635 4.402704 23.094027 0.000000 -0.000000 0.000000 -25.428429 1.898928 24.509303 -0.785036 15.561109 42.986824 4.478469 -4.690969 -38.076392 0.000000 -0.000000 0.000000 3.651888 5.490236 11.957270 0.354582 -2.392545 13.764376 -3.323452 1.456113 3.037978 -1.621215 11.436661 11.197807 0.206625 5.731755 11.899025 -28.338360 10.653591 -0.599466 -49.715567 9.070750 -2.673713 5.049824 -26.036194 2.974302 -1.538417 -1.912020 -12.939081 26.547000 -1.471959 0.390381 44.313436 2.688113 3.984330 -9.179543 41.875218 -6.665602 -1.135043 1.522229 1.183391 
0.897741 0.923518 0.878926 -91.393679 -11.742121 70.450118 27.289390 2.896528 -26.363482 -8.924460 -5.240617 22.759451 -18.371336 3.619384 24.637152 0.000000 -0.000000 0.000000 -26.407305 2.132058 23.770339 -0.933242 15.576500 42.607211 4.817500 -3.563947 -36.928797 0.000000 -0.000000 0.000000 3.596417 6.050648 12.576150 0.456759 -2.616991 13.337224 -3.462999 1.555354 2.903626 -1.173074 11.875875 10.394231 0.650065 5.175567 11.705864 -27.894718 9.731596 -0.532274 -48.068824 9.109302 -2.649347 4.515899 -25.935064 2.766526 -2.368439 -2.073121 -12.859916 26.848620 -0.506962 0.268268 44.690312 3.813636 4.300478 -10.420841 42.945407 -7.492870 -0.269076 1.551862 0.321698 
0.878434 0.898945 0.870511 -92.110838 -10.251203 72.005252 27.796397 3.685187 -29.088505 -8.768939 -1.565038 30.855221 -18.914787 3.759365 11.889489 0.000000 -0.000000 0.000000 -27.214681 1.647018 23.704886 -1.428638 16.611832 41.228673 7.220867 -1.893708 -35.474981 0.000000 -0.000000 0.000000 3.302258 6.870467 13.986188 0.859157 -3.032247 12.577265 -3.068301 1.655691 2.476210 -1.074877 11.158593 10.032611 1.074274 4.895425 11.655238 -27.433179 8.105802 -0.610218 -46.251125 9.126120 -3.271529 3.959696 -25.597519 2.884549 -3.388886 -2.520583 -11.204602 26.780405 0.556066 -0.412712 45.049556 3.829490 5.027644 -11.632137 43.751974 -8.095394 5.237227 -1.225350 -1.112787 
0.861623 0.874066 0.862905 -92.938992 -8.446245 74.540270 29.150477 6.075158 -33.341347 -9.006089 1.387329 36.970019 -17.768580 1.299087 5.075384 0.000000 -0.000000 0.000000 -27.903135 1.235608 22.446130 -1.785196 16.378131 39.693168 8.967389 0.280532 -33.274005 0.000000 -0.000000 0.000000 2.705505 7.630040 15.786526 1.320683 -3.388550 10.568957 -2.587940 1.643201 2.702164 -0.341440 12.259964 8.524144 1.171669 3.946828 12.089666 -26.507124 6.831981 -0.495914 -43.994347 7.432381 -3.807275 2.549693 -25.259638 3.362498 -1.476766 -3.963840 -10.230259 27.729928 1.117981 -0.656005 44.499770 6.509418 5.186118 -11.340150 45.566602 -8.277527 -1.144109 3.079937 0.276616 
0.847684 0.849206 0.859083 -92.578011 -7.215647 76.544197 29.913643 7.591784 -39.328658 -11.328241 2.917961 44.746912 -16.974382 -0.928729 2.987210 0.000000 -0.000000 0.000000 -29.032940 0.626729 21.493192 -1.672354 16.645076 38.718342 10.406115 1.957929 -28.809697 0.000000 -0.000000 0.000000 1.031207 8.858751 17.828072 1.987022 -4.958865 10.939998 -1.942802 1.562478 2.184705 -0.188078 12.949937 5.619286 1.926504 2.476904 11.745988 -25.031698 3.957340 -0.598168 -41.845199 5.494371 -3.407558 2.312571 -26.442700 2.456289 0.973423 -4.491648 -11.113169 28.033515 3.038024 -1.722986 45.466377 8.037799 6.417648 -15.285566 46.980292 -11.731030 -1.194505 1.962359 -0.434642 
0.833476 0.823713 0.858709 -91.848330 -6.076550 79.232599 29.299580 9.015780 -44.470016 -10.921546 6.113667 49.515774 -14.445611 -2.946579 -0.147387 0.000000 -0.000000 0.000000 -29.336871 0.084306 20.216171 -2.284971 16.985314 37.030721 12.256930 3.293846 -22.849769 0.000000 -0.000000 0.000000 -0.439960 10.406237 19.500777 2.571732 -6.130811 10.686593 -1.291688 1.214369 1.632643 -0.103979 12.895805 4.389838 3.159313 1.298897 10.406273 -22.914440 0.145423 0.213500 -39.106264 3.095590 -3.322316 1.556970 -27.670038 1.837150 2.944215 -5.612494 -11.062996 27.560115 4.894495 -1.534846 46.915705 9.271546 7.048139 -19.934868 48.251996 -16.131866 -1.249422 1.847258 -1.209754 
0.817732 0.798116 0.864434 -92.319331 -4.722018 81.839114 28.865007 9.979722 -46.677057 -10.739837 6.776458 52.016064 -12.602715 -3.796384 -5.485038 0.000000 -0.000000 0.000000 -29.506635 -0.447215 18.604833 -3.192267 17.489681 34.133547 15.213616 4.397757 -14.598350 0.000000 -0.000000 0.000000 -1.430905 12.240663 21.453332 2.887984 -6.391569 9.870699 -0.568865 1.353534 1.113064 -0.128974 12.024320 4.183848 4.532426 -0.170056 9.307995 -20.344916 -4.217260 0.922744 -36.446096 0.509083 -3.259766 1.085337 -28.596818 2.108613 4.099458 -6.681112 -10.868307 26.386780 6.981547 -1.204490 48.142223 9.367285 7.244040 -23.918200 49.501049 -19.313989 -0.658546 1.957754 -2.675642 
0.804413 0.774120 0.876222 -91.910945 -3.079249 85.211840 28.678796 10.725034 -50.556440 -10.808641 8.439045 54.051208 -11.067540 -4.477233 -6.226375 0.000000 -0.000000 0.000000 -30.001872 -2.100243 16.657266 -3.663214 16.425168 29.961300 18.565618 6.204093 -2.940005 0.000000 -0.000000 0.000000 -2.618478 13.830323 23.074636 3.385232 -7.103705 8.157082 0.451046 1.369658 1.041137 -0.328486 11.278683 3.629128 6.466687 -1.390351 7.954369 -17.419308 -7.837815 1.081776 -33.952570 -2.224371 -3.348372 0.753407 -30.322375 1.913183 5.133104 -7.621568 -10.373017 24.574308 8.480651 -0.951463 49.262528 9.411602 7.625926 -27.178066 50.956566 -21.528188 0.174062 1.353036 -3.778538 
0.792025 0.749151 0.895240 -91.374629 -1.146797 88.387676 27.825640 10.708593 -52.822713 -10.107167 8.956358 53.879722 -9.167889 -4.661896 -7.433750 0.000000 -0.000000 0.000000 -32.069164 -6.013448 14.823773 -2.888157 15.828401 23.736081 24.496219 8.177621 14.595493 0.000000 -0.000000 0.000000 -2.865829 15.363472 25.004677 3.756069 -7.801924 6.598345 1.413104 1.152983 1.325976 -0.552546 10.361582 1.558287 8.005982 -2.538279 7.555752 -14.490730 -10.804993 0.632860 -31.966663 -6.097289 -3.919651 0.952321 -31.660854 0.590135 7.019583 -9.020583 -9.869053 22.290567 9.189248 -1.205367 50.025843 9.887259 8.202910 -28.536510 52.347928 -22.084757 -0.106834 2.633172 -4.946949 
0.777280 0.725327 0.921143 -91.938241 2.029843 91.416509 28.191187 11.422528 -53.035323 -10.135629 8.297454 52.020623 -7.362536 -4.050638 -8.156382 0.000000 -0.000000 0.000000 -31.716478 -9.613318 11.910128 -1.589131 16.524227 18.427977 28.349087 7.439291 31.145307 0.000000 -0.000000 0.000000 -2.660384 15.944511 26.568910 4.367612 -7.310579 4.640369 2.329719 0.969248 1.725019 -0.886761 9.433961 0.110500 9.636990 -2.885293 6.578801 -12.110426 -12.563989 0.605831 -30.959177 -9.006614 -4.045258 2.094308 -34.151451 -0.870651 10.636273 -8.920206 -12.191401 20.914926 9.687110 -0.772819 50.247871 10.714995 8.688229 -28.882052 53.572762 -21.803950 -2.674823 2.378620 -6.220669 
